<svg id="visual" viewBox="0 0 900 450" width="900" height="450" xmlns="http://www.w3.org/2000/svg" xmlns:xlink="http://www.w3.org/1999/xlink" version="1.1"><rect x="0" y="0" width="900" height="450" fill="#6b9bf5"></rect><path d="M0 330L37.5 323.7C75 317.3 150 304.7 225 306.8C300 309 375 326 450 313.3C525 300.7 600 258.3 675 239.3C750 220.3 825 224.7 862.5 226.8L900 229L900 451L862.5 451C825 451 750 451 675 451C600 451 525 451 450 451C375 451 300 451 225 451C150 451 75 451 37.5 451L0 451Z" fill="#5ac6ff"></path><path d="M0 284L37.5 285.5C75 287 150 290 225 297.8C300 305.7 375 318.3 450 314.5C525 310.7 600 290.3 675 289.7C750 289 825 308 862.5 317.5L900 327L900 451L862.5 451C825 451 750 451 675 451C600 451 525 451 450 451C375 451 300 451 225 451C150 451 75 451 37.5 451L0 451Z" fill="#68cbfb"></path><path d="M0 380L37.5 365C75 350 150 320 225 303.3C300 286.7 375 283.3 450 297.7C525 312 600 344 675 355C750 366 825 356 862.5 351L900 346L900 451L862.5 451C825 451 750 451 675 451C600 451 525 451 450 451C375 451 300 451 225 451C150 451 75 451 37.5 451L0 451Z" fill="#77d0f8"></path><path d="M0 330L37.5 328.5C75 327 150 324 225 332.2C300 340.3 375 359.7 450 369.2C525 378.7 600 378.3 675 365.2C750 352 825 326 862.5 313L900 300L900 451L862.5 451C825 451 750 451 675 451C600 451 525 451 450 451C375 451 300 451 225 451C150 451 75 451 37.5 451L0 451Z" fill="#85d4f4"></path><path d="M0 336L37.5 349.5C75 363 150 390 225 403.5C300 417 375 417 450 408.3C525 399.7 600 382.3 675 371.7C750 361 825 357 862.5 355L900 353L900 451L862.5 451C825 451 750 451 675 451C600 451 525 451 450 451C375 451 300 451 225 451C150 451 75 451 37.5 451L0 451Z" fill="#94d9f1"></path><path d="M0 438L37.5 432C75 426 150 414 225 412.3C300 410.7 375 419.3 450 415.2C525 411 600 394 675 387.8C750 381.7 825 386.3 862.5 388.7L900 391L900 451L862.5 451C825 451 750 451 675 451C600 451 525 451 450 451C375 451 300 451 225 451C150 451 75 451 37.5 451L0 451Z" fill="#a2ddef"></path></svg>