<svg id="visual" viewBox="0 0 900 450" width="900" height="450" xmlns="http://www.w3.org/2000/svg" xmlns:xlink="http://www.w3.org/1999/xlink" version="1.1"><rect x="0" y="0" width="900" height="450" fill="#062847"></rect><path d="M0 269L30 260.2C60 251.3 120 233.7 180 221C240 208.3 300 200.7 360 198C420 195.3 480 197.7 540 203.3C600 209 660 218 720 215.3C780 212.7 840 198.3 870 191.2L900 184L900 451L870 451C840 451 780 451 720 451C660 451 600 451 540 451C480 451 420 451 360 451C300 451 240 451 180 451C120 451 60 451 30 451L0 451Z" fill="#23416e"></path><path d="M0 254L30 262.7C60 271.3 120 288.7 180 285.7C240 282.7 300 259.3 360 246.5C420 233.7 480 231.3 540 241.3C600 251.3 660 273.7 720 284.3C780 295 840 294 870 293.5L900 293L900 451L870 451C840 451 780 451 720 451C660 451 600 451 540 451C480 451 420 451 360 451C300 451 240 451 180 451C120 451 60 451 30 451L0 451Z" fill="#13325d"></path><path d="M0 344L30 341.7C60 339.3 120 334.7 180 324.2C240 313.7 300 297.3 360 295.2C420 293 480 305 540 311.7C600 318.3 660 319.7 720 320.2C780 320.7 840 320.3 870 320.2L900 320L900 451L870 451C840 451 780 451 720 451C660 451 600 451 540 451C480 451 420 451 360 451C300 451 240 451 180 451C120 451 60 451 30 451L0 451Z" fill="#00244c"></path><path d="M0 333L30 333.8C60 334.7 120 336.3 180 340.7C240 345 300 352 360 350.7C420 349.3 480 339.7 540 334.5C600 329.3 660 328.7 720 328.8C780 329 840 330 870 330.5L900 331L900 451L870 451C840 451 780 451 720 451C660 451 600 451 540 451C480 451 420 451 360 451C300 451 240 451 180 451C120 451 60 451 30 451L0 451Z" fill="#00163b"></path><path d="M0 399L30 402.2C60 405.3 120 411.7 180 407.8C240 404 300 390 360 388.3C420 386.7 480 397.3 540 404.5C600 411.7 660 415.3 720 413C780 410.7 840 402.3 870 398.2L900 394L900 451L870 451C840 451 780 451 720 451C660 451 600 451 540 451C480 451 420 451 360 451C300 451 240 451 180 451C120 451 60 451 30 451L0 451Z" fill="#000000"></path></svg>