<svg id="visual" viewBox="0 0 900 450" width="900" height="450" xmlns="http://www.w3.org/2000/svg" xmlns:xlink="http://www.w3.org/1999/xlink" version="1.1"><rect x="0" y="0" width="900" height="450" fill="#c5dff7"></rect><path d="M0 210L75 221.3C150 232.7 300 255.3 450 257.2C600 259 750 240 825 230.5L900 221L900 451L825 451C750 451 600 451 450 451C300 451 150 451 75 451L0 451Z" fill="#6fd9fe"></path><path d="M0 281L75 268.3C150 255.7 300 230.3 450 220.8C600 211.3 750 217.7 825 220.8L900 224L900 451L825 451C750 451 600 451 450 451C300 451 150 451 75 451L0 451Z" fill="#5ac6ff"></path><path d="M0 327L75 325.2C150 323.3 300 319.7 450 304.3C600 289 750 262 825 248.5L900 235L900 451L825 451C750 451 600 451 450 451C300 451 150 451 75 451L0 451Z" fill="#59b2fd"></path><path d="M0 347L75 350C150 353 300 359 450 361.8C600 364.7 750 364.3 825 364.2L900 364L900 451L825 451C750 451 600 451 450 451C300 451 150 451 75 451L0 451Z" fill="#6b9bf5"></path></svg>