<svg id="visual" viewBox="0 0 900 450" width="900" height="450" xmlns="http://www.w3.org/2000/svg" xmlns:xlink="http://www.w3.org/1999/xlink" version="1.1"><rect x="0" y="0" width="900" height="450" fill="#000000"></rect><path d="M0 239L37.5 256.5C75 274 150 309 225 311.3C300 313.7 375 283.3 450 278.3C525 273.3 600 293.7 675 283.2C750 272.7 825 231.3 862.5 210.7L900 190L900 451L862.5 451C825 451 750 451 675 451C600 451 525 451 450 451C375 451 300 451 225 451C150 451 75 451 37.5 451L0 451Z" fill="#000000"></path><path d="M0 219L37.5 242.8C75 266.7 150 314.3 225 337.2C300 360 375 358 450 350.7C525 343.3 600 330.7 675 317C750 303.3 825 288.7 862.5 281.3L900 274L900 451L862.5 451C825 451 750 451 675 451C600 451 525 451 450 451C375 451 300 451 225 451C150 451 75 451 37.5 451L0 451Z" fill="#001238"></path><path d="M0 309L37.5 316.8C75 324.7 150 340.3 225 334.2C300 328 375 300 450 296.7C525 293.3 600 314.7 675 320.3C750 326 825 316 862.5 311L900 306L900 451L862.5 451C825 451 750 451 675 451C600 451 525 451 450 451C375 451 300 451 225 451C150 451 75 451 37.5 451L0 451Z" fill="#001e45"></path><path d="M0 342L37.5 350.8C75 359.7 150 377.3 225 371.8C300 366.3 375 337.7 450 325C525 312.3 600 315.7 675 316.8C750 318 825 317 862.5 316.5L900 316L900 451L862.5 451C825 451 750 451 675 451C600 451 525 451 450 451C375 451 300 451 225 451C150 451 75 451 37.5 451L0 451Z" fill="#072a53"></path><path d="M0 370L37.5 365.7C75 361.3 150 352.7 225 362.2C300 371.7 375 399.3 450 411.3C525 423.3 600 419.7 675 408.8C750 398 825 380 862.5 371L900 362L900 451L862.5 451C825 451 750 451 675 451C600 451 525 451 450 451C375 451 300 451 225 451C150 451 75 451 37.5 451L0 451Z" fill="#163560"></path><path d="M0 376L37.5 387.3C75 398.7 150 421.3 225 424.2C300 427 375 410 450 404.2C525 398.3 600 403.7 675 412.3C750 421 825 433 862.5 439L900 445L900 451L862.5 451C825 451 750 451 675 451C600 451 525 451 450 451C375 451 300 451 225 451C150 451 75 451 37.5 451L0 451Z" fill="#23416e"></path></svg>