<svg id="visual" viewBox="0 0 900 600" width="900" height="600" xmlns="http://www.w3.org/2000/svg" xmlns:xlink="http://www.w3.org/1999/xlink" version="1.1"><rect x="0" y="0" width="900" height="600" fill="#062847"></rect><path d="M0 349L16.7 339.7C33.3 330.3 66.7 311.7 100 291.2C133.3 270.7 166.7 248.3 200 254.7C233.3 261 266.7 296 300 317.3C333.3 338.7 366.7 346.3 400 334.7C433.3 323 466.7 292 500 276.8C533.3 261.7 566.7 262.3 600 264.3C633.3 266.3 666.7 269.7 700 275C733.3 280.3 766.7 287.7 800 282.8C833.3 278 866.7 261 883.3 252.5L900 244L900 601L883.3 601C866.7 601 833.3 601 800 601C766.7 601 733.3 601 700 601C666.7 601 633.3 601 600 601C566.7 601 533.3 601 500 601C466.7 601 433.3 601 400 601C366.7 601 333.3 601 300 601C266.7 601 233.3 601 200 601C166.7 601 133.3 601 100 601C66.7 601 33.3 601 16.7 601L0 601Z" fill="#0b0b0c"></path><path d="M0 333L16.7 351.7C33.3 370.3 66.7 407.7 100 400.5C133.3 393.3 166.7 341.7 200 340.8C233.3 340 266.7 390 300 406.8C333.3 423.7 366.7 407.3 400 402.2C433.3 397 466.7 403 500 404.8C533.3 406.7 566.7 404.3 600 395.8C633.3 387.3 666.7 372.7 700 370.5C733.3 368.3 766.7 378.7 800 389.2C833.3 399.7 866.7 410.3 883.3 415.7L900 421L900 601L883.3 601C866.7 601 833.3 601 800 601C766.7 601 733.3 601 700 601C666.7 601 633.3 601 600 601C566.7 601 533.3 601 500 601C466.7 601 433.3 601 400 601C366.7 601 333.3 601 300 601C266.7 601 233.3 601 200 601C166.7 601 133.3 601 100 601C66.7 601 33.3 601 16.7 601L0 601Z" fill="#13152a"></path><path d="M0 451L16.7 461C33.3 471 66.7 491 100 488.2C133.3 485.3 166.7 459.7 200 460C233.3 460.3 266.7 486.7 300 484.5C333.3 482.3 366.7 451.7 400 451C433.3 450.3 466.7 479.7 500 487C533.3 494.3 566.7 479.7 600 460.3C633.3 441 666.7 417 700 403.8C733.3 390.7 766.7 388.3 800 409.3C833.3 430.3 866.7 474.7 883.3 496.8L900 519L900 601L883.3 601C866.7 601 833.3 601 800 601C766.7 601 733.3 601 700 601C666.7 601 633.3 601 600 601C566.7 601 533.3 601 500 601C466.7 601 433.3 601 400 601C366.7 601 333.3 601 300 601C266.7 601 233.3 601 200 601C166.7 601 133.3 601 100 601C66.7 601 33.3 601 16.7 601L0 601Z" fill="#121d48"></path><path d="M0 500L16.7 495.2C33.3 490.3 66.7 480.7 100 487.5C133.3 494.3 166.7 517.7 200 516.8C233.3 516 266.7 491 300 478.2C333.3 465.3 366.7 464.7 400 480.2C433.3 495.7 466.7 527.3 500 534.5C533.3 541.7 566.7 524.3 600 526C633.3 527.7 666.7 548.3 700 539.5C733.3 530.7 766.7 492.3 800 480.7C833.3 469 866.7 484 883.3 491.5L900 499L900 601L883.3 601C866.7 601 833.3 601 800 601C766.7 601 733.3 601 700 601C666.7 601 633.3 601 600 601C566.7 601 533.3 601 500 601C466.7 601 433.3 601 400 601C366.7 601 333.3 601 300 601C266.7 601 233.3 601 200 601C166.7 601 133.3 601 100 601C66.7 601 33.3 601 16.7 601L0 601Z" fill="#062468"></path></svg>