<svg id="visual" viewBox="0 0 900 600" width="900" height="600" xmlns="http://www.w3.org/2000/svg" xmlns:xlink="http://www.w3.org/1999/xlink" version="1.1"><rect x="0" y="0" width="900" height="600" fill="#c5dff7"></rect><path d="M0 445L13.7 445.5C27.3 446 54.7 447 82 439.8C109.3 432.7 136.7 417.3 163.8 413.8C191 410.3 218 418.7 245.2 409.5C272.3 400.3 299.7 373.7 327 358.5C354.3 343.3 381.7 339.7 409 351.7C436.3 363.7 463.7 391.3 491 403.7C518.3 416 545.7 413 573 417.7C600.3 422.3 627.7 434.7 654.8 435.8C682 437 709 427 736.2 422.8C763.3 418.7 790.7 420.3 818 419.2C845.3 418 872.7 414 886.3 412L900 410L900 601L886.3 601C872.7 601 845.3 601 818 601C790.7 601 763.3 601 736.2 601C709 601 682 601 654.8 601C627.7 601 600.3 601 573 601C545.7 601 518.3 601 491 601C463.7 601 436.3 601 409 601C381.7 601 354.3 601 327 601C299.7 601 272.3 601 245.2 601C218 601 191 601 163.8 601C136.7 601 109.3 601 82 601C54.7 601 27.3 601 13.7 601L0 601Z" fill="#6fd9fe"></path><path d="M0 465L13.7 459.8C27.3 454.7 54.7 444.3 82 447.7C109.3 451 136.7 468 163.8 471.2C191 474.3 218 463.7 245.2 454.5C272.3 445.3 299.7 437.7 327 427.8C354.3 418 381.7 406 409 404.7C436.3 403.3 463.7 412.7 491 427.5C518.3 442.3 545.7 462.7 573 471.2C600.3 479.7 627.7 476.3 654.8 461.2C682 446 709 419 736.2 410.8C763.3 402.7 790.7 413.3 818 422.7C845.3 432 872.7 440 886.3 444L900 448L900 601L886.3 601C872.7 601 845.3 601 818 601C790.7 601 763.3 601 736.2 601C709 601 682 601 654.8 601C627.7 601 600.3 601 573 601C545.7 601 518.3 601 491 601C463.7 601 436.3 601 409 601C381.7 601 354.3 601 327 601C299.7 601 272.3 601 245.2 601C218 601 191 601 163.8 601C136.7 601 109.3 601 82 601C54.7 601 27.3 601 13.7 601L0 601Z" fill="#63d1fe"></path><path d="M0 483L13.7 482.7C27.3 482.3 54.7 481.7 82 468C109.3 454.3 136.7 427.7 163.8 428.5C191 429.3 218 457.7 245.2 474.8C272.3 492 299.7 498 327 485.3C354.3 472.7 381.7 441.3 409 440C436.3 438.7 463.7 467.3 491 470.8C518.3 474.3 545.7 452.7 573 442.7C600.3 432.7 627.7 434.3 654.8 435.2C682 436 709 436 736.2 436.5C763.3 437 790.7 438 818 437.5C845.3 437 872.7 435 886.3 434L900 433L900 601L886.3 601C872.7 601 845.3 601 818 601C790.7 601 763.3 601 736.2 601C709 601 682 601 654.8 601C627.7 601 600.3 601 573 601C545.7 601 518.3 601 491 601C463.7 601 436.3 601 409 601C381.7 601 354.3 601 327 601C299.7 601 272.3 601 245.2 601C218 601 191 601 163.8 601C136.7 601 109.3 601 82 601C54.7 601 27.3 601 13.7 601L0 601Z" fill="#5ac8fe"></path><path d="M0 482L13.7 479.2C27.3 476.3 54.7 470.7 82 473.3C109.3 476 136.7 487 163.8 491C191 495 218 492 245.2 481.5C272.3 471 299.7 453 327 453.5C354.3 454 381.7 473 409 480.3C436.3 487.7 463.7 483.3 491 472.5C518.3 461.7 545.7 444.3 573 440.8C600.3 437.3 627.7 447.7 654.8 449.3C682 451 709 444 736.2 451C763.3 458 790.7 479 818 489.3C845.3 499.7 872.7 499.3 886.3 499.2L900 499L900 601L886.3 601C872.7 601 845.3 601 818 601C790.7 601 763.3 601 736.2 601C709 601 682 601 654.8 601C627.7 601 600.3 601 573 601C545.7 601 518.3 601 491 601C463.7 601 436.3 601 409 601C381.7 601 354.3 601 327 601C299.7 601 272.3 601 245.2 601C218 601 191 601 163.8 601C136.7 601 109.3 601 82 601C54.7 601 27.3 601 13.7 601L0 601Z" fill="#54bffd"></path><path d="M0 533L13.7 523.5C27.3 514 54.7 495 82 486.5C109.3 478 136.7 480 163.8 476.5C191 473 218 464 245.2 461.2C272.3 458.3 299.7 461.7 327 469C354.3 476.3 381.7 487.7 409 491.3C436.3 495 463.7 491 491 493C518.3 495 545.7 503 573 498.2C600.3 493.3 627.7 475.7 654.8 476.3C682 477 709 496 736.2 497.7C763.3 499.3 790.7 483.7 818 479C845.3 474.3 872.7 480.7 886.3 483.8L900 487L900 601L886.3 601C872.7 601 845.3 601 818 601C790.7 601 763.3 601 736.2 601C709 601 682 601 654.8 601C627.7 601 600.3 601 573 601C545.7 601 518.3 601 491 601C463.7 601 436.3 601 409 601C381.7 601 354.3 601 327 601C299.7 601 272.3 601 245.2 601C218 601 191 601 163.8 601C136.7 601 109.3 601 82 601C54.7 601 27.3 601 13.7 601L0 601Z" fill="#53b5fb"></path><path d="M0 496L13.7 505C27.3 514 54.7 532 82 538.2C109.3 544.3 136.7 538.7 163.8 528.8C191 519 218 505 245.2 496.7C272.3 488.3 299.7 485.7 327 495.7C354.3 505.7 381.7 528.3 409 530C436.3 531.7 463.7 512.3 491 510.5C518.3 508.7 545.7 524.3 573 531.2C600.3 538 627.7 536 654.8 533.7C682 531.3 709 528.7 736.2 530.8C763.3 533 790.7 540 818 536.2C845.3 532.3 872.7 517.7 886.3 510.3L900 503L900 601L886.3 601C872.7 601 845.3 601 818 601C790.7 601 763.3 601 736.2 601C709 601 682 601 654.8 601C627.7 601 600.3 601 573 601C545.7 601 518.3 601 491 601C463.7 601 436.3 601 409 601C381.7 601 354.3 601 327 601C299.7 601 272.3 601 245.2 601C218 601 191 601 163.8 601C136.7 601 109.3 601 82 601C54.7 601 27.3 601 13.7 601L0 601Z" fill="#56abf9"></path><path d="M0 549L13.7 552C27.3 555 54.7 561 82 559.2C109.3 557.3 136.7 547.7 163.8 544.8C191 542 218 546 245.2 543.7C272.3 541.3 299.7 532.7 327 534.7C354.3 536.7 381.7 549.3 409 556.2C436.3 563 463.7 564 491 557.3C518.3 550.7 545.7 536.3 573 527.7C600.3 519 627.7 516 654.8 517.3C682 518.7 709 524.3 736.2 525.7C763.3 527 790.7 524 818 526.3C845.3 528.7 872.7 536.3 886.3 540.2L900 544L900 601L886.3 601C872.7 601 845.3 601 818 601C790.7 601 763.3 601 736.2 601C709 601 682 601 654.8 601C627.7 601 600.3 601 573 601C545.7 601 518.3 601 491 601C463.7 601 436.3 601 409 601C381.7 601 354.3 601 327 601C299.7 601 272.3 601 245.2 601C218 601 191 601 163.8 601C136.7 601 109.3 601 82 601C54.7 601 27.3 601 13.7 601L0 601Z" fill="#5da1f5"></path><path d="M0 588L13.7 585C27.3 582 54.7 576 82 569.7C109.3 563.3 136.7 556.7 163.8 554.8C191 553 218 556 245.2 555C272.3 554 299.7 549 327 552C354.3 555 381.7 566 409 570C436.3 574 463.7 571 491 569C518.3 567 545.7 566 573 568.3C600.3 570.7 627.7 576.3 654.8 578.5C682 580.7 709 579.3 736.2 573.5C763.3 567.7 790.7 557.3 818 558.5C845.3 559.7 872.7 572.3 886.3 578.7L900 585L900 601L886.3 601C872.7 601 845.3 601 818 601C790.7 601 763.3 601 736.2 601C709 601 682 601 654.8 601C627.7 601 600.3 601 573 601C545.7 601 518.3 601 491 601C463.7 601 436.3 601 409 601C381.7 601 354.3 601 327 601C299.7 601 272.3 601 245.2 601C218 601 191 601 163.8 601C136.7 601 109.3 601 82 601C54.7 601 27.3 601 13.7 601L0 601Z" fill="#6696f0"></path></svg>