<svg id="visual" viewBox="0 0 900 450" width="900" height="450" xmlns="http://www.w3.org/2000/svg" xmlns:xlink="http://www.w3.org/1999/xlink" version="1.1"><rect x="0" y="0" width="900" height="450" fill="#062847"></rect><g fill="#5eb9d4"><path d="M0 -15.1L3.4 -4.7L14.4 -4.7L5.5 1.8L8.9 12.2L0 5.8L-8.9 12.2L-5.5 1.8L-14.4 -4.7L-3.4 -4.7Z" transform="translate(605 47)"></path><path d="M0 -0.9L0.2 -0.3L0.9 -0.3L0.3 0.1L0.6 0.8L0 0.4L-0.6 0.8L-0.3 0.1L-0.9 -0.3L-0.2 -0.3Z" transform="translate(500 420)"></path><path d="M0 -0.9L0.2 -0.3L0.9 -0.3L0.3 0.1L0.6 0.8L0 0.4L-0.6 0.8L-0.3 0.1L-0.9 -0.3L-0.2 -0.3Z" transform="translate(885 17)"></path><path d="M0 -2.8L0.6 -0.9L2.7 -0.9L1 0.3L1.7 2.3L0 1.1L-1.7 2.3L-1 0.3L-2.7 -0.9L-0.6 -0.9Z" transform="translate(408 285)"></path><path d="M0 -12.3L2.8 -3.8L11.7 -3.8L4.5 1.4L7.2 9.9L0 4.7L-7.2 9.9L-4.5 1.4L-11.7 -3.8L-2.8 -3.8Z" transform="translate(723 324)"></path><path d="M0 -10.4L2.3 -3.2L9.9 -3.2L3.8 1.2L6.1 8.4L0 4L-6.1 8.4L-3.8 1.2L-9.9 -3.2L-2.3 -3.2Z" transform="translate(332 184)"></path><path d="M0 -2.8L0.6 -0.9L2.7 -0.9L1 0.3L1.7 2.3L0 1.1L-1.7 2.3L-1 0.3L-2.7 -0.9L-0.6 -0.9Z" transform="translate(586 169)"></path><path d="M0 -3.8L0.8 -1.2L3.6 -1.2L1.4 0.4L2.2 3.1L0 1.4L-2.2 3.1L-1.4 0.4L-3.6 -1.2L-0.8 -1.2Z" transform="translate(853 426)"></path><path d="M0 -1.9L0.4 -0.6L1.8 -0.6L0.7 0.2L1.1 1.5L0 0.7L-1.1 1.5L-0.7 0.2L-1.8 -0.6L-0.4 -0.6Z" transform="translate(42 135)"></path><path d="M0 -11.3L2.5 -3.5L10.8 -3.5L4.1 1.3L6.7 9.2L0 4.3L-6.7 9.2L-4.1 1.3L-10.8 -3.5L-2.5 -3.5Z" transform="translate(464 60)"></path><path d="M0 -10.4L2.3 -3.2L9.9 -3.2L3.8 1.2L6.1 8.4L0 4L-6.1 8.4L-3.8 1.2L-9.9 -3.2L-2.3 -3.2Z" transform="translate(239 370)"></path><path d="M0 -9.4L2.1 -2.9L9 -2.9L3.4 1.1L5.5 7.6L0 3.6L-5.5 7.6L-3.4 1.1L-9 -2.9L-2.1 -2.9Z" transform="translate(48 54)"></path><path d="M0 -13.2L3 -4.1L12.6 -4.1L4.8 1.6L7.8 10.7L0 5L-7.8 10.7L-4.8 1.6L-12.6 -4.1L-3 -4.1Z" transform="translate(814 335)"></path><path d="M0 -0.9L0.2 -0.3L0.9 -0.3L0.3 0.1L0.6 0.8L0 0.4L-0.6 0.8L-0.3 0.1L-0.9 -0.3L-0.2 -0.3Z" transform="translate(499 286)"></path><path d="M0 -12.3L2.8 -3.8L11.7 -3.8L4.5 1.4L7.2 9.9L0 4.7L-7.2 9.9L-4.5 1.4L-11.7 -3.8L-2.8 -3.8Z" transform="translate(764 231)"></path><path d="M0 -11.3L2.5 -3.5L10.8 -3.5L4.1 1.3L6.7 9.2L0 4.3L-6.7 9.2L-4.1 1.3L-10.8 -3.5L-2.5 -3.5Z" transform="translate(869 130)"></path><path d="M0 -10.4L2.3 -3.2L9.9 -3.2L3.8 1.2L6.1 8.4L0 4L-6.1 8.4L-3.8 1.2L-9.9 -3.2L-2.3 -3.2Z" transform="translate(761 338)"></path><path d="M0 -11.3L2.5 -3.5L10.8 -3.5L4.1 1.3L6.7 9.2L0 4.3L-6.7 9.2L-4.1 1.3L-10.8 -3.5L-2.5 -3.5Z" transform="translate(657 257)"></path></g></svg>