<svg id="visual" viewBox="0 0 900 600" width="900" height="600" xmlns="http://www.w3.org/2000/svg" xmlns:xlink="http://www.w3.org/1999/xlink" version="1.1"><path d="M0 31L37.5 35C75 39 150 47 225 50C300 53 375 51 450 57C525 63 600 77 675 79C750 81 825 71 862.5 66L900 61L900 0L862.5 0C825 0 750 0 675 0C600 0 525 0 450 0C375 0 300 0 225 0C150 0 75 0 37.5 0L0 0Z" fill="#6696f0"></path><path d="M0 295L37.5 276C75 257 150 219 225 222C300 225 375 269 450 267C525 265 600 217 675 202C750 187 825 205 862.5 214L900 223L900 59L862.5 64C825 69 750 79 675 77C600 75 525 61 450 55C375 49 300 51 225 48C150 45 75 37 37.5 33L0 29Z" fill="#5aa5f7"></path><path d="M0 349L37.5 335C75 321 150 293 225 297C300 301 375 337 450 338C525 339 600 305 675 287C750 269 825 267 862.5 266L900 265L900 221L862.5 212C825 203 750 185 675 200C600 215 525 263 450 265C375 267 300 223 225 220C150 217 75 255 37.5 274L0 293Z" fill="#53b3fb"></path><path d="M0 463L37.5 433C75 403 150 343 225 342C300 341 375 399 450 413C525 427 600 397 675 372C750 347 825 327 862.5 317L900 307L900 263L862.5 264C825 265 750 267 675 285C600 303 525 337 450 336C375 335 300 299 225 295C150 291 75 319 37.5 333L0 347Z" fill="#55c1fd"></path><path d="M0 505L37.5 512C75 519 150 533 225 539C300 545 375 543 450 542C525 541 600 541 675 546C750 551 825 561 862.5 566L900 571L900 305L862.5 315C825 325 750 345 675 370C600 395 525 425 450 411C375 397 300 339 225 340C150 341 75 401 37.5 431L0 461Z" fill="#5fcdfe"></path><path d="M0 601L37.5 601C75 601 150 601 225 601C300 601 375 601 450 601C525 601 600 601 675 601C750 601 825 601 862.5 601L900 601L900 569L862.5 564C825 559 750 549 675 544C600 539 525 539 450 540C375 541 300 543 225 537C150 531 75 517 37.5 510L0 503Z" fill="#6fd9fe"></path></svg>