<svg id="visual" viewBox="0 0 900 600" width="900" height="600" xmlns="http://www.w3.org/2000/svg" xmlns:xlink="http://www.w3.org/1999/xlink" version="1.1"><path d="M0 169L50 168C100 167 200 165 300 150C400 135 500 107 600 97C700 87 800 95 850 99L900 103L900 0L850 0C800 0 700 0 600 0C500 0 400 0 300 0C200 0 100 0 50 0L0 0Z" fill="#062468"></path><path d="M0 355L50 338C100 321 200 287 300 254C400 221 500 189 600 185C700 181 800 205 850 217L900 229L900 101L850 97C800 93 700 85 600 95C500 105 400 133 300 148C200 163 100 165 50 166L0 167Z" fill="#001d49"></path><path d="M0 595L50 550C100 505 200 415 300 398C400 381 500 437 600 429C700 421 800 349 850 313L900 277L900 227L850 215C800 203 700 179 600 183C500 187 400 219 300 252C200 285 100 319 50 336L0 353Z" fill="#07142a"></path><path d="M0 601L50 601C100 601 200 601 300 601C400 601 500 601 600 601C700 601 800 601 850 601L900 601L900 275L850 311C800 347 700 419 600 427C500 435 400 379 300 396C200 413 100 503 50 548L0 593Z" fill="#010308"></path></svg>